Coordinates
version=1
nRows=27
nColumns=12
inDegrees=yes

Units are S.I. units (second, meters, Newtons, ...)
Angles are in degrees

endheader
time	SC_y	SC_z	SC_x	AC_y	AC_z	AC_x	GH_y	GH_z	GH_yy	EL_x	PS_y
       0.0              -29.33           8.48           35.8          64.19         -12.71         -1.825         -174.0         -11.39         -114.0          88.07          50.21
   0.03016              -29.33          8.484           35.8          64.19         -12.71         -1.826         -174.0         -11.39         -113.9          88.06          50.22
   0.06032              -29.33          8.488          35.81          64.19         -12.71         -1.826         -174.0         -11.39         -113.9          88.05          50.23
   0.09047              -29.33          8.493          35.81          64.19         -12.71         -1.826         -174.0         -11.38         -113.8          88.05          50.24
    0.1206              -29.34          8.498          35.81          64.19         -12.71         -1.827         -174.0         -11.38         -113.8          88.04          50.25
    0.1508              -29.34          8.503          35.81          64.19         -12.71         -1.827         -174.0         -11.37         -113.7          88.03          50.26
    0.1809              -29.34          8.509          35.82          64.19         -12.71         -1.828         -173.9         -11.37         -113.7          88.02          50.27
    0.2111              -29.35          8.515          35.82          64.19         -12.71         -1.828         -173.9         -11.36         -113.6          88.01          50.29
    0.2413              -29.35          8.521          35.82          64.19         -12.71         -1.829         -173.9         -11.36         -113.6           88.0           50.3
    0.2714              -29.35          8.528          35.83          64.19         -12.72         -1.829         -173.9         -11.35         -113.5          87.99          50.32
    0.3016              -29.36          8.535          35.83           64.2         -12.72          -1.83         -173.9         -11.34         -113.4          87.98          50.33
    0.3317              -29.36          8.543          35.83           64.2         -12.72          -1.83         -173.9         -11.34         -113.4          87.97          50.35
    0.3619              -29.37          8.552          35.84           64.2         -12.72         -1.831         -173.8         -11.33         -113.3          87.95          50.37
    0.3921              -29.37          8.561          35.84           64.2         -12.72         -1.832         -173.8         -11.32         -113.2          87.94          50.39
    0.4222              -29.38          8.571          35.85           64.2         -12.72         -1.833         -173.8         -11.31         -113.1          87.92          50.41
    0.4524              -29.39          8.582          35.85           64.2         -12.72         -1.834         -173.8          -11.3         -113.0           87.9          50.44
    0.4825              -29.39          8.594          35.86           64.2         -12.72         -1.835         -173.8         -11.29         -112.9          87.88          50.46
    0.5127               -29.4          8.607          35.86           64.2         -12.72         -1.836         -173.7         -11.28         -112.8          87.86          50.49
    0.5428              -29.41          8.621          35.87          64.21         -12.72         -1.837         -173.7         -11.27         -112.6          87.84          50.52
     0.573              -29.42          8.636          35.88          64.21         -12.73         -1.838         -173.7         -11.26         -112.5          87.82          50.56
    0.6032              -29.43          8.653          35.89          64.21         -12.73         -1.839         -173.6         -11.24         -112.3          87.79           50.6
    0.6333              -29.44          8.672           35.9          64.21         -12.73         -1.841         -173.6         -11.22         -112.1          87.76          50.64
    0.6635              -29.45          8.692          35.91          64.22         -12.73         -1.842         -173.5         -11.21         -111.9          87.72          50.69
    0.6936              -29.47          8.715          35.92          64.22         -12.73         -1.844         -173.5         -11.19         -111.7          87.69          50.74
    0.7238              -29.48           8.74          35.93          64.22         -12.74         -1.846         -173.4         -11.16         -111.5          87.65          50.79
    0.7539               -29.5          8.769          35.94          64.23         -12.74         -1.849         -173.4         -11.14         -111.2           87.6          50.86
    0.7841              -29.52            8.8          35.96          64.23         -12.74         -1.851         -173.3         -11.11         -110.9          87.55          50.93
